<svg xmlns="http://www.w3.org/2000/svg" viewBox="-5 -5 26 26" shape-rendering="crispEdges">
<rect x="-5" y="-5" width="26" height="26" rx="5.5" fill="#3dbfa8"/>
<g transform="translate(0 -0.5)"><rect x="3" y="2" width="3" height="1" fill="#2b2a27"/><rect x="10" y="2" width="3" height="1" fill="#2b2a27"/><rect x="2" y="3" width="1" height="1" fill="#2b2a27"/><rect x="3" y="3" width="3" height="1" fill="#fffaf0"/><rect x="6" y="3" width="1" height="1" fill="#2b2a27"/><rect x="9" y="3" width="1" height="1" fill="#2b2a27"/><rect x="10" y="3" width="3" height="1" fill="#fffaf0"/><rect x="13" y="3" width="1" height="1" fill="#2b2a27"/><rect x="1" y="4" width="1" height="1" fill="#2b2a27"/><rect x="2" y="4" width="5" height="1" fill="#fffaf0"/><rect x="7" y="4" width="2" height="1" fill="#2b2a27"/><rect x="9" y="4" width="5" height="1" fill="#fffaf0"/><rect x="14" y="4" width="1" height="1" fill="#2b2a27"/><rect x="1" y="5" width="1" height="1" fill="#2b2a27"/><rect x="2" y="5" width="3" height="1" fill="#fffaf0"/><rect x="5" y="5" width="1" height="1" fill="#2b2a27"/><rect x="6" y="5" width="4" height="1" fill="#fffaf0"/><rect x="10" y="5" width="1" height="1" fill="#2b2a27"/><rect x="11" y="5" width="3" height="1" fill="#fffaf0"/><rect x="14" y="5" width="1" height="1" fill="#2b2a27"/><rect x="1" y="6" width="1" height="1" fill="#2b2a27"/><rect x="2" y="6" width="3" height="1" fill="#fffaf0"/><rect x="5" y="6" width="1" height="1" fill="#2b2a27"/><rect x="6" y="6" width="4" height="1" fill="#fffaf0"/><rect x="10" y="6" width="1" height="1" fill="#2b2a27"/><rect x="11" y="6" width="3" height="1" fill="#fffaf0"/><rect x="14" y="6" width="1" height="1" fill="#2b2a27"/><rect x="1" y="7" width="1" height="1" fill="#2b2a27"/><rect x="2" y="7" width="2" height="1" fill="#fffaf0"/><rect x="4" y="7" width="1" height="1" fill="#f7b6a0"/><rect x="5" y="7" width="6" height="1" fill="#fffaf0"/><rect x="11" y="7" width="1" height="1" fill="#f7b6a0"/><rect x="12" y="7" width="1" height="1" fill="#fffaf0"/><rect x="13" y="7" width="1" height="1" fill="#e3dccb"/><rect x="14" y="7" width="1" height="1" fill="#2b2a27"/><rect x="1" y="8" width="1" height="1" fill="#2b2a27"/><rect x="2" y="8" width="4" height="1" fill="#fffaf0"/><rect x="6" y="8" width="1" height="1" fill="#2b2a27"/><rect x="7" y="8" width="2" height="1" fill="#fffaf0"/><rect x="9" y="8" width="1" height="1" fill="#2b2a27"/><rect x="10" y="8" width="3" height="1" fill="#fffaf0"/><rect x="13" y="8" width="1" height="1" fill="#e3dccb"/><rect x="14" y="8" width="1" height="1" fill="#2b2a27"/><rect x="2" y="9" width="1" height="1" fill="#2b2a27"/><rect x="3" y="9" width="4" height="1" fill="#fffaf0"/><rect x="7" y="9" width="2" height="1" fill="#2b2a27"/><rect x="9" y="9" width="3" height="1" fill="#fffaf0"/><rect x="12" y="9" width="1" height="1" fill="#e3dccb"/><rect x="13" y="9" width="1" height="1" fill="#2b2a27"/><rect x="2" y="10" width="1" height="1" fill="#2b2a27"/><rect x="3" y="10" width="9" height="1" fill="#fffaf0"/><rect x="12" y="10" width="1" height="1" fill="#e3dccb"/><rect x="13" y="10" width="1" height="1" fill="#2b2a27"/><rect x="2" y="11" width="1" height="1" fill="#2b2a27"/><rect x="3" y="11" width="3" height="1" fill="#fffaf0"/><rect x="6" y="11" width="4" height="1" fill="#2b2a27"/><rect x="10" y="11" width="2" height="1" fill="#fffaf0"/><rect x="12" y="11" width="1" height="1" fill="#e3dccb"/><rect x="13" y="11" width="1" height="1" fill="#2b2a27"/><rect x="2" y="12" width="1" height="1" fill="#2b2a27"/><rect x="3" y="12" width="2" height="1" fill="#fffaf0"/><rect x="5" y="12" width="1" height="1" fill="#2b2a27"/><rect x="10" y="12" width="1" height="1" fill="#2b2a27"/><rect x="11" y="12" width="1" height="1" fill="#fffaf0"/><rect x="12" y="12" width="1" height="1" fill="#e3dccb"/><rect x="13" y="12" width="1" height="1" fill="#2b2a27"/><rect x="2" y="13" width="1" height="1" fill="#2b2a27"/><rect x="3" y="13" width="2" height="1" fill="#fffaf0"/><rect x="5" y="13" width="1" height="1" fill="#2b2a27"/><rect x="10" y="13" width="1" height="1" fill="#2b2a27"/><rect x="11" y="13" width="1" height="1" fill="#fffaf0"/><rect x="12" y="13" width="1" height="1" fill="#e3dccb"/><rect x="13" y="13" width="1" height="1" fill="#2b2a27"/><rect x="3" y="14" width="2" height="1" fill="#2b2a27"/><rect x="11" y="14" width="2" height="1" fill="#2b2a27"/></g>
</svg>
